<?xml version="1.0" standalone="no"?>
<!DOCTYPE svg PUBLIC "-//W3C//DTD SVG 20010904//EN"
 "http://www.w3.org/TR/2001/REC-SVG-20010904/DTD/svg10.dtd">
<svg version="1.0" xmlns="http://www.w3.org/2000/svg"
 width="700.000000pt" height="700.000000pt" viewBox="0 0 700.000000 700.000000"
 preserveAspectRatio="xMidYMid meet">
<metadata>
Created by potrace 1.11, written by Peter Selinger 2001-2013
</metadata>
<g transform="translate(0.000000,700.000000) scale(0.100000,-0.100000)"
fill="#000000" stroke="none">
<path d="M2722 6559 c-703 -429 -722 -442 -732 -478 -5 -21 -336 -1364 -735
-2986 -399 -1622 -734 -2982 -744 -3022 l-19 -73 167 0 166 0 1085 1075 1085
1074 373 1 c204 0 372 4 372 8 0 5 -261 647 -580 1427 l-580 1418 94 101 c625
676 769 831 777 831 4 0 206 -210 449 -467 l440 -467 0 -883 0 -883 540 -540
540 -540 -1077 -1077 -1078 -1078 545 0 545 0 1073 1073 c589 589 1072 1077
1072 1082 0 6 -484 494 -1075 1085 l-1075 1075 727 5 726 5 -278 315 c-153
173 -296 338 -319 366 -66 83 -1750 1994 -1756 1994 -3 0 -331 -198 -728 -441z"/>
<path d="M3379 5237 c-125 -47 -190 -137 -190 -263 0 -161 115 -277 272 -276
79 0 139 23 188 73 135 134 95 373 -76 450 -55 26 -148 33 -194 16z"/>
</g>
</svg>
