<svg version="1.2" baseProfile="tiny" xmlns="http://www.w3.org/2000/svg" viewBox="0 0 128 128"><path fill="#FFF" d="M11.4 128h56l38.8-38.9-26.8-28.4V24.9L63 10.1 36.2 37z"/><path d="M95.2 36.5L63.1 0 36.6 16.2 9.1 128H15l32.2-31.9 7.5-7.5h13.7L47.1 36.5l16-17.3 16.3 17.3"/><path fill="#FFDE17" d="M79.4 36.5v12.6h26.9L95.2 36.5"/><path d="M58.3 37c0 2.8 2 5 4.8 5.1 2.8.1 5-2 5.1-4.8.1-2.9-2.1-5.2-5-5.2-2.6-.1-4.9 2.2-4.9 4.9z"/><path fill="#00AEEF" d="M118.9 88.6L79.4 49.1l.1 19.8 19.7 19.7L59.8 128h19.7z"/></svg>